<mxfile host="app.diagrams.net" modified="2022-05-13T10:20:33.529Z" agent="5.0 (Macintosh; Intel Mac OS X 10_15_7) AppleWebKit/537.36 (KHTML, like Gecko) Chrome/101.0.4951.54 Safari/537.36" etag="aF5oYFQHRuDQgFmMdReC" version="18.0.3" type="github">
  <diagram id="NRC96le2XexLYnNYiFtz" name="Page-1">
    <mxGraphModel dx="2514" dy="1438" grid="1" gridSize="10" guides="1" tooltips="1" connect="1" arrows="1" fold="1" page="1" pageScale="1" pageWidth="850" pageHeight="1100" math="0" shadow="0">
      <root>
        <mxCell id="0" />
        <mxCell id="1" parent="0" />
        <mxCell id="-kzURzPXVR5KRmThc8KB-5" value="" style="edgeStyle=orthogonalEdgeStyle;rounded=0;orthogonalLoop=1;jettySize=auto;html=1;" edge="1" parent="1" source="-kzURzPXVR5KRmThc8KB-2" target="-kzURzPXVR5KRmThc8KB-4">
          <mxGeometry relative="1" as="geometry" />
        </mxCell>
        <mxCell id="-kzURzPXVR5KRmThc8KB-2" value="" style="shape=cylinder3;whiteSpace=wrap;html=1;boundedLbl=1;backgroundOutline=1;size=15;" vertex="1" parent="1">
          <mxGeometry x="20" y="270" width="90" height="110" as="geometry" />
        </mxCell>
        <mxCell id="-kzURzPXVR5KRmThc8KB-3" value="WareHouse S3" style="text;html=1;align=center;verticalAlign=middle;resizable=0;points=[];autosize=1;strokeColor=none;fillColor=none;" vertex="1" parent="1">
          <mxGeometry x="15" y="320" width="100" height="20" as="geometry" />
        </mxCell>
        <mxCell id="-kzURzPXVR5KRmThc8KB-7" style="edgeStyle=orthogonalEdgeStyle;rounded=0;orthogonalLoop=1;jettySize=auto;html=1;" edge="1" parent="1" source="-kzURzPXVR5KRmThc8KB-4">
          <mxGeometry relative="1" as="geometry">
            <mxPoint x="275" y="530" as="targetPoint" />
          </mxGeometry>
        </mxCell>
        <mxCell id="-kzURzPXVR5KRmThc8KB-4" value="Batch Job" style="whiteSpace=wrap;html=1;" vertex="1" parent="1">
          <mxGeometry x="215" y="295" width="120" height="60" as="geometry" />
        </mxCell>
        <mxCell id="-kzURzPXVR5KRmThc8KB-9" style="edgeStyle=orthogonalEdgeStyle;rounded=0;orthogonalLoop=1;jettySize=auto;html=1;" edge="1" parent="1" source="-kzURzPXVR5KRmThc8KB-6" target="-kzURzPXVR5KRmThc8KB-8">
          <mxGeometry relative="1" as="geometry" />
        </mxCell>
        <mxCell id="-kzURzPXVR5KRmThc8KB-6" value="Top-Seller DB" style="shape=cylinder3;whiteSpace=wrap;html=1;boundedLbl=1;backgroundOutline=1;size=15;" vertex="1" parent="1">
          <mxGeometry x="227.5" y="530" width="95" height="120" as="geometry" />
        </mxCell>
        <mxCell id="-kzURzPXVR5KRmThc8KB-8" value="Website" style="rounded=0;whiteSpace=wrap;html=1;" vertex="1" parent="1">
          <mxGeometry x="500" y="295" width="120" height="60" as="geometry" />
        </mxCell>
      </root>
    </mxGraphModel>
  </diagram>
</mxfile>
